<?xml version="1.0" encoding="UTF-8"?>
<svg version="1.1" xmlns="http://www.w3.org/2000/svg" width="500" height="500">
<path d="M0 0 C0.33 0.66 0.66 1.32 1 2 C1.66128906 2.11472656 2.32257813 2.22945312 3.00390625 2.34765625 C7.3684642 3.29795766 11.0098509 5.35174246 14.9375 7.4375 C16.20231201 8.10857788 16.20231201 8.10857788 17.49267578 8.79321289 C55.80290248 29.54731123 86.21805427 66.27951142 99 108 C103.70571216 124.78013439 106.42570235 141.34579505 106.375 158.8125 C106.37418427 159.88108246 106.37418427 159.88108246 106.37335205 160.97125244 C106.26221294 192.92152294 98.17347896 225.37451703 80 252 C79.61585938 252.57057129 79.23171875 253.14114258 78.8359375 253.72900391 C73.78714547 261.19429438 68.42019109 268.03291976 62.2421875 274.60546875 C60.371071 276.60371686 58.61006894 278.63509164 56.875 280.75 C40.7449548 299.65030227 12.9044174 316.36174664 -11 323 C-15.10247498 323.27018033 -17.54472859 322.30351427 -21 320 C-23.66053005 320.15933118 -26.18257281 320.43250837 -28.8125 320.8125 C-39.52328661 322.176527 -50.21206021 322.69246231 -61 323 C-61.77843262 323.02336426 -62.55686523 323.04672852 -63.35888672 323.07080078 C-73.68943189 323.33986072 -83.83941023 322.72179107 -94.12280273 321.71166992 C-102.96361934 320.4779387 -102.96361934 320.4779387 -111.5 322.0625 C-119.32779901 324.99792463 -129.75255049 319.24692987 -137 316 C-149.08392965 310.12443761 -160.37496418 303.20965501 -171 295 C-171.81911865 294.36819824 -171.81911865 294.36819824 -172.65478516 293.72363281 C-179.26439643 288.59044909 -179.26439643 288.59044909 -182 286 C-182 285.34 -182 284.68 -182 284 C-182.86625 283.62875 -182.86625 283.62875 -183.75 283.25 C-186.32939979 281.81700012 -188.06121592 280.21575324 -190 278 C-190 277.34 -190 276.68 -190 276 C-190.66 276 -191.32 276 -192 276 C-195.25955534 272.55779716 -198.10962223 268.75429549 -201 265 C-201.40847168 264.47035645 -201.81694336 263.94071289 -202.23779297 263.39501953 C-225.14639553 233.33944347 -236.51784629 197.5237423 -236.3125 159.8125 C-236.30926727 158.73458191 -236.30926727 158.73458191 -236.30596924 157.6348877 C-236.12451871 119.75682674 -223.91086216 85.08043837 -201 55 C-200.30519531 54.07960938 -199.61039063 53.15921875 -198.89453125 52.2109375 C-172.11611528 18.1475866 -132.26546536 -4.64968722 -89.29541016 -10.359375 C-59.44615421 -13.88773032 -28.03742727 -11.67064214 0 0 Z " fill="#FDFDFD" transform="translate(315,90)"/>
<path d="M0 0 C12.73537434 0.18128647 29.43658407 7.31933372 39.19921875 15.5390625 C44.07862678 18.04711389 47.90562432 16.70105286 53.09375 15.5 C69.82134155 11.89481568 86.51043903 11.1393353 103.53125 13 C104.26972168 13.07943848 105.00819336 13.15887695 105.76904297 13.24072266 C109.52926763 13.6916858 113.12481004 14.32717612 116.78515625 15.3046875 C123.84335515 17.11540046 128.81437139 18.2004124 135.36962891 14.42749023 C137.87575598 12.80186834 140.31249836 11.09566906 142.73095703 9.34277344 C152.3141697 2.73423914 163.89546294 -0.47375798 175.40625 0.1875 C176.05535154 1.76949631 176.70039694 3.35315724 177.34375 4.9375 C177.88322266 6.26007813 177.88322266 6.26007813 178.43359375 7.609375 C180.6725409 13.5439337 180.58976816 19.021198 180.59375 25.3125 C180.60599609 26.30765625 180.61824219 27.3028125 180.63085938 28.328125 C180.64061601 33.31051497 180.37041218 37.80152664 179.20703125 42.65625 C178.35308914 46.25473658 178.35308914 46.25473658 179.53125 49.7109375 C180.15 50.32195312 180.76875 50.93296875 181.40625 51.5625 C192.17286631 63.57956978 194.98815983 77.58377166 194.84375 93.25 C194.84104095 93.9355899 194.83833191 94.62117981 194.83554077 95.32754517 C194.7429813 110.76290601 192.29430427 124.20880163 185.40625 138.1875 C184.98859375 139.03570312 184.5709375 139.88390625 184.140625 140.7578125 C177.26153175 153.36948346 166.89598684 160.91289411 154.40625 167.1875 C153.5915625 167.60773438 152.776875 168.02796875 151.9375 168.4609375 C142.85951627 172.83547314 132.92686477 174.40410661 123.0234375 175.7578125 C120.4338659 176.05019238 120.4338659 176.05019238 118.40625 177.1875 C118.80457031 177.75597656 119.20289063 178.32445312 119.61328125 178.91015625 C125.57510159 187.59903796 128.45635809 194.7806568 128.61157227 205.46826172 C128.63151749 206.6890744 128.65146271 207.90988708 128.67201233 209.16769409 C128.69708107 211.12269333 128.69708107 211.12269333 128.72265625 213.1171875 C128.74325243 214.47625319 128.76424955 215.83531286 128.78562927 217.19436646 C128.84057513 220.75511774 128.89010447 224.31592417 128.93847656 227.87677002 C128.98889353 231.51685438 129.04447371 235.15685959 129.09960938 238.796875 C129.20685423 245.92701454 129.30837261 253.05722522 129.40625 260.1875 C110.16012551 263.61353247 110.16012551 263.61353247 100.40625 263.875 C99.47876953 263.90625977 98.55128906 263.93751953 97.59570312 263.96972656 C95.72936353 264.02800965 93.86280849 264.07982972 91.99609375 264.12451172 C89.68378701 264.18074995 87.37385158 264.26211042 85.0625 264.34765625 C70.45327436 264.73986172 55.90151363 262.8047757 41.40625 261.1875 C41.56472412 260.68895508 41.72319824 260.19041016 41.88647461 259.67675781 C42.6017539 256.25121173 42.64209074 252.84502883 42.72265625 249.359375 C42.7538279 248.23586639 42.7538279 248.23586639 42.78562927 247.08966064 C42.85082088 244.70569712 42.90986783 242.32162688 42.96875 239.9375 C43.01196416 238.31769746 43.05557937 236.69790557 43.09960938 235.078125 C43.20647096 231.11469168 43.30782333 227.1511514 43.40625 223.1875 C42.19291992 223.51057129 40.97958984 223.83364258 39.72949219 224.16650391 C34.66694225 225.42859268 29.85929839 225.57147077 24.65625 225.5625 C23.68558594 225.56088867 22.71492188 225.55927734 21.71484375 225.55761719 C11.90280687 225.39014266 3.17947311 223.51454207 -4.59375 217.1875 C-5.13128906 216.77628906 -5.66882813 216.36507812 -6.22265625 215.94140625 C-11.31310567 211.55701469 -13.76911696 206.19249156 -16.6105957 200.24755859 C-20.86976898 191.38345649 -25.76124792 184.21387717 -33.59375 178.1875 C-34.74295094 177.23320759 -35.88899941 176.27510085 -37.03125 175.3125 C-37.876875 174.61125 -38.7225 173.91 -39.59375 173.1875 C-39.21875 170.75 -39.21875 170.75 -38.59375 168.1875 C-35.02019897 166.40072449 -31.44084587 166.60932374 -27.59375 167.1875 C-16.57245984 171.18485913 -10.50953495 177.22877571 -4.15625 186.75 C1.08277585 194.59688663 6.51511003 198.9400597 15.40625 202.1875 C18.15239022 202.44314669 20.61520992 202.57091786 23.34375 202.5 C24.04669189 202.490896 24.74963379 202.48179199 25.47387695 202.47241211 C30.44590891 202.35300027 34.69221031 201.69955047 39.40625 200.1875 C41.07019675 199.84084443 42.73568851 199.50073028 44.40625 199.1875 C44.2825 198.28 44.15875 197.3725 44.03125 196.4375 C43.99220251 190.08577545 47.89490077 182.93555111 52.10546875 178.328125 C52.53472656 177.95171875 52.96398437 177.5753125 53.40625 177.1875 C52.436875 177.02894531 51.4675 176.87039063 50.46875 176.70703125 C28.49842126 172.95397434 6.07611993 166.32800892 -7.96875 147.75 C-22.06760507 127.03331501 -25.60453019 101.98904593 -22.20703125 77.38720703 C-20.2971927 67.82082576 -16.2347099 55.4347002 -8.25390625 49.42578125 C-6.36526876 47.40276955 -6.36526876 47.40276955 -6.77368164 45.35131836 C-7.15684924 43.82361081 -7.5613077 42.3011597 -7.98144531 40.78320312 C-9.09676173 36.05511534 -8.97526301 31.27436614 -8.96875 26.4375 C-8.96931396 25.38361084 -8.96987793 24.32972168 -8.97045898 23.24389648 C-8.6491887 0.45126202 -8.6491887 0.45126202 0 0 Z " fill="#1B1E23" transform="translate(164.59375,148.8125)"/>
<path d="M0 0 C0.66 0.33 1.32 0.66 2 1 C-1.08632611 4.2626876 -3.93483504 7.02235218 -8 9 C-8.66 8.67 -9.32 8.34 -10 8 C-6.7 5.36 -3.4 2.72 0 0 Z " fill="#D7D7D7" transform="translate(151,109)"/>
<path d="M0 0 C0.144375 0.61875 0.28875 1.2375 0.4375 1.875 C0.93152225 4.03258322 0.93152225 4.03258322 2 6 C0.02 7.32 -1.96 8.64 -4 10 C-2.8905928 6.51329166 -1.73662334 3.22515763 0 0 Z " fill="#DEDCDB" transform="translate(98,169)"/>
<path d="M0 0 C2.95409701 1.37154504 5.44008376 2.98863724 8 5 C7.01 5.33 6.02 5.66 5 6 C5 5.34 5 4.68 5 4 C4.01 4.33 3.02 4.66 2 5 C1.34 4.34 0.68 3.68 0 3 C0 2.01 0 1.02 0 0 Z " fill="#25262A" transform="translate(167,345)"/>
<path d="M0 0 C0 0.66 0 1.32 0 2 C-0.99 2.33 -1.98 2.66 -3 3 C-3.66 2.34 -4.32 1.68 -5 1 C-2 0 -2 0 0 0 Z M-4 3 C-3.67 3.66 -3.34 4.32 -3 5 C-2.34 5.33 -1.68 5.66 -1 6 C-2.98 6.99 -2.98 6.99 -5 8 C-4.67 6.35 -4.34 4.7 -4 3 Z " fill="#2A2C32" transform="translate(322,152)"/>
<path d="M0 0 C6.0546875 -0.1953125 6.0546875 -0.1953125 8 0 C8.66 0.66 9.32 1.32 10 2 C2.25 3.125 2.25 3.125 0 2 C0 1.34 0 0.68 0 0 Z " fill="#2B2E30" transform="translate(161,149)"/>
<path d="" fill="#000000" transform="translate(0,0)"/>
<path d="" fill="#000000" transform="translate(0,0)"/>
<path d="" fill="#000000" transform="translate(0,0)"/>
<path d="" fill="#000000" transform="translate(0,0)"/>
<path d="" fill="#000000" transform="translate(0,0)"/>
<path d="" fill="#000000" transform="translate(0,0)"/>
<path d="" fill="#FF0000" transform="translate(0,0)"/>
<path d="" fill="#000000" transform="translate(0,0)"/>
<path d="" fill="#000000" transform="translate(0,0)"/>
<path d="" fill="#000000" transform="translate(0,0)"/>
<path d="" fill="#000000" transform="translate(0,0)"/>
<path d="" fill="#000000" transform="translate(0,0)"/>
<path d="" fill="#000000" transform="translate(0,0)"/>
<path d="" fill="#000000" transform="translate(0,0)"/>
<path d="" fill="#000000" transform="translate(0,0)"/>
<path d="" fill="#000000" transform="translate(0,0)"/>
<path d="" fill="#000000" transform="translate(0,0)"/>
<path d="" fill="#000000" transform="translate(0,0)"/>
<path d="" fill="#000000" transform="translate(0,0)"/>
<path d="" fill="#000000" transform="translate(0,0)"/>
<path d="" fill="#000000" transform="translate(0,0)"/>
<path d="" fill="#000000" transform="translate(0,0)"/>
<path d="" fill="#000000" transform="translate(0,0)"/>
<path d="" fill="#000000" transform="translate(0,0)"/>
<path d="" fill="#000000" transform="translate(0,0)"/>
<path d="" fill="#000000" transform="translate(0,0)"/>
<path d="" fill="#000000" transform="translate(0,0)"/>
<path d="" fill="#000000" transform="translate(0,0)"/>
<path d="" fill="#000000" transform="translate(0,0)"/>
<path d="" fill="#000000" transform="translate(0,0)"/>
<path d="" fill="#000000" transform="translate(0,0)"/>
<path d="" fill="#000000" transform="translate(0,0)"/>
<path d="" fill="#000000" transform="translate(0,0)"/>
<path d="" fill="#000000" transform="translate(0,0)"/>
<path d="" fill="#000000" transform="translate(0,0)"/>
<path d="" fill="#000000" transform="translate(0,0)"/>
<path d="" fill="#000000" transform="translate(0,0)"/>
<path d="" fill="#000000" transform="translate(0,0)"/>
<path d="" fill="#000000" transform="translate(0,0)"/>
<path d="" fill="#000000" transform="translate(0,0)"/>
<path d="" fill="#000000" transform="translate(0,0)"/>
<path d="" fill="#000000" transform="translate(0,0)"/>
<path d="" fill="#000000" transform="translate(0,0)"/>
<path d="" fill="#000000" transform="translate(0,0)"/>
<path d="" fill="#000000" transform="translate(0,0)"/>
<path d="" fill="#000000" transform="translate(0,0)"/>
<path d="" fill="#000000" transform="translate(0,0)"/>
</svg>
