<?xml version="1.0" encoding="UTF-8"?>
<svg version="1.1" xmlns="http://www.w3.org/2000/svg" width="216" height="216">
<path d="M0 0 C4.03311168 3.31891482 8.59946019 7.28714522 10.375 12.30859375 C11.55033247 14.51222191 11.55033247 14.51222191 14.6015625 15.05859375 C15.80554688 15.24550781 17.00953125 15.43242188 18.25 15.625 C27.21281478 17.32215531 32.46724514 20.48641383 38.625 27.1875 C41.30885117 29.87135117 43.40551429 29.84100416 47.125 30.5 C57.53203463 32.63040627 66.9764394 36.70313372 73.31640625 45.546875 C79.73195119 55.74991032 81.40071533 66.36511687 79.0078125 78.25390625 C75.78177071 88.28889465 69.49243394 95.71478924 60.41015625 100.93359375 C52.59160532 104.45358653 45.88439552 105.62951765 37.31298828 105.59155273 C36.21743622 105.59841599 35.12188416 105.60527924 33.99313354 105.61235046 C30.39372571 105.63055952 26.79475624 105.62678895 23.1953125 105.62109375 C20.67861795 105.62565857 18.16192466 105.63096503 15.64523315 105.63697815 C10.37819472 105.64589786 5.11126876 105.6437352 -0.15576172 105.63354492 C-6.21855908 105.62207324 -12.28091358 105.63613272 -18.34365261 105.6629414 C-24.20682726 105.68788369 -30.06983134 105.6902569 -35.93304825 105.68382454 C-38.4136135 105.68367174 -40.89418744 105.68968173 -43.37472153 105.70211601 C-46.85154349 105.71708942 -50.32740608 105.70630097 -53.80419922 105.68920898 C-55.32264435 105.70371094 -55.32264435 105.70371094 -56.87176514 105.71850586 C-67.35951113 105.61121898 -77.43967088 102.20888811 -85.375 95.1875 C-94.2331966 85.19681942 -97.21096067 76.24755203 -96.71484375 63.05859375 C-95.86356522 53.36184638 -91.20874004 45.99771598 -84.375 39.1875 C-77.20846067 33.70584754 -68.56543591 29.48054339 -59.375 30.1875 C-59.4575 29.23875 -59.54 28.29 -59.625 27.3125 C-59.59102628 18.88701664 -54.63721227 10.50457971 -49.375 4.1875 C-35.60429894 -8.64039373 -15.78109292 -11.19077502 0 0 Z " fill="#A993FE" transform="translate(116.375,58.8125)"/>
<path d="M0 0 C2.684833 0.18728214 3.77346144 0.77200927 5.67578125 2.68652344 C6.21589844 3.40356445 6.75601563 4.12060547 7.3125 4.859375 C7.91320312 5.64570312 8.51390625 6.43203125 9.1328125 7.2421875 C9.74898437 8.06976563 10.36515625 8.89734375 11 9.75 C12.22905124 11.36987925 13.45821492 12.9896732 14.6875 14.609375 C15.25984375 15.37056641 15.8321875 16.13175781 16.421875 16.91601562 C18.23737803 19.31346826 20.10294661 21.66662433 22 24 C22.01981934 23.34402832 22.03963867 22.68805664 22.06005859 22.01220703 C22.15512507 19.04938931 22.26487752 16.08729468 22.375 13.125 C22.4059375 12.09246094 22.436875 11.05992188 22.46875 9.99609375 C22.50742188 9.00996094 22.54609375 8.02382812 22.5859375 7.0078125 C22.6173584 6.09660645 22.6487793 5.18540039 22.68115234 4.24658203 C23 2 23 2 25 0 C26.32 0.33 27.64 0.66 29 1 C29 13.21 29 25.42 29 38 C26.525 38.495 26.525 38.495 24 39 C21.76847116 36.1476733 19.54021646 33.29280491 17.3125 30.4375 C16.37374023 29.23770508 16.37374023 29.23770508 15.41601562 28.01367188 C14.49272461 26.8293457 14.49272461 26.8293457 13.55078125 25.62109375 C12.99044189 24.9036499 12.43010254 24.18620605 11.8527832 23.44702148 C9.50444422 20.34550592 7.26116559 17.16563183 5 14 C4.67 21.92 4.34 29.84 4 38 C2.02 38.495 2.02 38.495 0 39 C-2.51704805 36.48295195 -2.24669599 34.92327101 -2.27789307 31.48840332 C-2.2738446 30.73941772 -2.26979614 29.99043213 -2.265625 29.21875 C-2.26753845 28.44946167 -2.2694519 27.68017334 -2.27142334 26.88757324 C-2.27278508 25.2601692 -2.26908939 23.6327543 -2.26074219 22.00537109 C-2.25004221 19.50984369 -2.26063751 17.01503618 -2.2734375 14.51953125 C-2.2721159 12.94010257 -2.2695535 11.36067434 -2.265625 9.78125 C-2.26967346 9.0322644 -2.27372192 8.28327881 -2.27789307 7.51159668 C-2.22992243 2.22992243 -2.22992243 2.22992243 0 0 Z " fill="#FFFFFF" transform="translate(61,108)"/>
<path d="M0 0 C2.421875 0.17578125 2.421875 0.17578125 5 1 C6.265625 2.73046875 6.265625 2.73046875 7.25 5.1875 C7.64960938 6.16332031 8.04921875 7.13914062 8.4609375 8.14453125 C8.69135742 8.72928223 8.92177734 9.3140332 9.15917969 9.91650391 C10.18029038 12.44674741 11.26626797 14.94584601 12.3515625 17.44921875 C13.19388982 19.42397563 14.03502357 21.39924201 14.875 23.375 C15.29297852 24.33817139 15.71095703 25.30134277 16.14160156 26.29370117 C16.52541992 27.21513916 16.90923828 28.13657715 17.3046875 29.0859375 C17.65515137 29.9114209 18.00561523 30.7369043 18.36669922 31.58740234 C19.10745896 34.40937141 18.76952151 36.21521265 18 39 C15.6875 38.9375 15.6875 38.9375 13 38 C12.01 35.69 11.02 33.38 10 31 C4.72 30.67 -0.56 30.34 -6 30 C-6.66 31.98 -7.32 33.96 -8 36 C-8.66 36.99 -9.32 37.98 -10 39 C-11.9375 38.6875 -11.9375 38.6875 -14 38 C-15.39469273 33.8159218 -13.71486143 31.17302291 -12.0703125 27.3046875 C-11.7605246 26.55663849 -11.45073669 25.80858948 -11.13156128 25.03787231 C-10.47511546 23.45748174 -9.8141141 21.87897688 -9.14892578 20.30224609 C-8.12758016 17.88111634 -7.11923125 15.45490524 -6.11328125 13.02734375 C-5.4747064 11.49447982 -4.83540802 9.96191705 -4.1953125 8.4296875 C-3.89110382 7.70055145 -3.58689514 6.97141541 -3.27346802 6.22018433 C-1.11807193 1.11807193 -1.11807193 1.11807193 0 0 Z " fill="#FFFFFF" transform="translate(138,108)"/>
<path d="M0 0 C2 0.25 2 0.25 4 1 C5.21901975 4.65705924 4.72039022 5.19638967 3.06567383 8.54736328 C2.61803177 9.46486359 2.17038971 10.38236389 1.70918274 11.32766724 C1.21347275 12.31524017 0.71776276 13.30281311 0.20703125 14.3203125 C-0.29540604 15.33471405 -0.79784332 16.3491156 -1.31550598 17.39425659 C-2.38242344 19.54027246 -3.45457105 21.68369474 -4.53149414 23.82470703 C-6.18011156 27.11027539 -7.80277415 30.40779363 -9.42382812 33.70703125 C-10.46198742 35.78723473 -11.50165112 37.86668823 -12.54296875 39.9453125 C-13.02855759 40.9369339 -13.51414642 41.9285553 -14.01445007 42.95022583 C-14.47785294 43.86142181 -14.9412558 44.7726178 -15.41870117 45.71142578 C-15.82142746 46.51734161 -16.22415375 47.32325745 -16.63908386 48.15359497 C-18 50 -18 50 -20.16133118 50.76803589 C-20.76809189 50.84458405 -21.3748526 50.9211322 -22 51 C-23.11677551 49.29130554 -23.11677551 49.29130554 -24 47 C-23.37406921 44.77937317 -23.37406921 44.77937317 -22.1315918 42.33911133 C-21.67419113 41.42168655 -21.21679047 40.50426178 -20.74552917 39.55903625 C-20.23524673 38.5766246 -19.72496429 37.59421295 -19.19921875 36.58203125 C-18.6882515 35.56904465 -18.17728424 34.55605804 -17.65083313 33.51237488 C-16.01119701 30.27131797 -14.34945998 27.04215668 -12.6875 23.8125 C-11.57736075 21.62376414 -10.46861865 19.43431904 -9.36132812 17.24414062 C-7.33466486 13.24940578 -5.30491182 9.25638541 -3.2565918 5.27270508 C-2.84418747 4.46980545 -2.43178314 3.66690582 -2.00688171 2.8396759 C-1 1 -1 1 0 0 Z " fill="#FFFFFF" transform="translate(118,103)"/>
<path d="M0 0 C0.66 0 1.32 0 2 0 C3.32 3.63 4.64 7.26 6 11 C2.7 11 -0.6 11 -4 11 C-2.68 7.37 -1.36 3.74 0 0 Z " fill="#A993FE" transform="translate(139,120)"/>
</svg>
